<svg xmlns="http://www.w3.org/2000/svg" viewBox="0 0 700 770">
  <defs>
    <linearGradient id="g" x1="0" y1="0" x2="1" y2="1">
      <stop offset="0" stop-color="#e3f1ef"/>
      <stop offset="1" stop-color="#d5e9e5"/>
    </linearGradient>
  </defs>
  <rect width="700" height="770" fill="url(#g)"/>
  <path transform="translate(255 190) scale(1.9)" fill="#147d75" opacity="0.35"
    d="M50 8C32 8 20 21 22 39c1.3 12 6.4 17.6 8.4 30C32.8 84 36.8 93 42 93c5.6 0 5-11 8-11s2.4 11 8 11c5.2 0 9.2-9 11.6-24 2-12.4 7.1-18 8.4-30C80 21 68 8 50 8Z"/>
  <g fill="#10333c" text-anchor="middle" font-family="Arial, sans-serif">
    <text x="350" y="480" font-size="30" font-weight="bold">Foto Antes / Después</text>
    <text x="350" y="520" font-size="21" opacity="0.65">Sube la imagen real como</text>
    <text x="350" y="550" font-size="21" opacity="0.65">assets/img/caso-1.jpg, caso-2.jpg o caso-3.jpg</text>
  </g>
</svg>
